/* XPM */
static char *_2e01a384ab145d5d48aa5bdc2966645gsFZHZGoKLW8pCJ1[] = {
/* columns rows colors chars-per-pixel */
"32 32 12 1 ",
"  c None",
". c #412320",
"X c #59302C",
"o c #5C322D",
"O c #6D3B36",
"+ c #434F65",
"@ c #9A544C",
"# c #6F7F9F",
"$ c gray55",
"% c #8895AF",
"& c gray68",
"* c #A6B0C4",
/* pixels */
"                                ",
"                                ",
"                                ",
"                                ",
"             %%%%%%             ",
"             %%%%%%             ",
"       %%%%%+%%%%%%+%%%%%       ",
"       %%%%%+******+%%%%%       ",
"+%%%%%+%%%%%+######+%%%%%+%%%%%+",
"+%%%%%+*****+######+*****+%%%%%+",
"+%%%%%+#####+######+#####+%%%%%+",
"+*****+#####+######+#####+*****+",
"+#####+#####........#####+#####+",
"+#####....................#####+",
"+#####....................#####+",
"++++++......X.XXXX.X......++++++",
"+*****XXX.XXX.XXXX.XXX.XXX*****+",
"+#####XXX.OOOoOOOOoOOO.XXX#####+",
"+#####OOOoOOOoOOOOoOOOoOOO#####+",
"+#####$$&oOOOoOOOOoOOOoOOO#####+",
"+#####$&&oOOOoOOOOoOOOoOOO#####+",
"++++++OOOoOOOoOOOOoOOOoOOO++++++",
"+*****OOOoOOOoOOOOoOOOoO&O*****+",
"+#####OOOoOOOoOOOOoOOOoO&O#####+",
"+#####OOOoOOOoOOOOoOOOoO&O#####+",
"+#####OOOoOOOoOOOOoOOOoO&O#####+",
"+#####OOOoOOOoOOOOoOOOoO&O#####+",
"++++++OOOoOOOoOOOOoOOOoOOO++++++",
"+*****$$&oOOOoOOOOoOOOoOOO*****+",
"+#####$&&oOOOoOOOOoOOOoOOO#####+",
"+#####OOOoOOOoOOOOoOOOoOOO#####+",
"+#####@@@o@@@o@@@@o@@@o@@@#####+"
};
