/* XPM */
static char *_f35e3231fa14dd7d350648ea34d6c3bRHvw2yEq2ExEVnWB[] = {
/* columns rows colors chars-per-pixel */
"16 16 4 1 ",
"  c #353E50",
". c #434F65",
"X c #5A6988",
"o c #6F7F9F",
/* pixels */
".........       ",
".........ooooooo",
".........oXXX.Xo",
"    .       .   ",
"oooo.ooooooo.ooo",
"XXXo.oXXXXXo.oXX",
"XXXX..XXXXX..XXX",
".       ........",
".ooooooo........",
".oXXXXXo........",
".XX.XXXX........",
"    ..      .   ",
"oooo. oooooo.ooo",
"XXXo.oXXXXXo.oXX",
"XXXX.XXXXXXX.XXX",
"................"
};
