/* XPM */
static char *_6acf6604e444170f99341b90b57d3922shtNKJem069jbdP[] = {
/* columns rows colors chars-per-pixel */
"128 128 64 1 ",
"  c black",
". c #040404",
"X c #0B0B0B",
"o c gray5",
"O c #131313",
"+ c #161616",
"@ c #181818",
"# c #1E1E1E",
"$ c #222222",
"% c #272727",
"& c gray17",
"* c gray18",
"= c #313131",
"- c gray21",
"; c gray22",
": c gray24",
"> c gray25",
", c gray28",
"< c #4B4B4B",
"1 c #4C4C4C",
"2 c #505050",
"3 c gray33",
"4 c #5B5B5B",
"5 c #5F5F5F",
"6 c gray38",
"7 c gray40",
"8 c #6A6A6A",
"9 c gray43",
"0 c #727272",
"q c gray46",
"w c #7B7B7B",
"e c gray49",
"r c #838383",
"t c gray52",
"y c #8B8B8B",
"u c gray55",
"i c #929292",
"p c gray58",
"a c #9A9A9A",
"s c #9D9D9D",
"d c gray64",
"f c #A5A5A5",
"g c #A9A9A9",
"h c gray68",
"j c #B2B2B2",
"k c gray71",
"l c #BBBBBB",
"z c #BCBCBC",
"x c #C3C3C3",
"c c #C6C6C6",
"v c #CACACA",
"b c gray80",
"n c #D2D2D2",
"m c gray84",
"M c gray85",
"N c gray87",
"B c #E1E1E1",
"V c gray90",
"C c gray91",
"Z c #ECECEC",
"A c #F1F1F1",
"S c gray96",
"D c #F9F9F9",
"F c white",
/* pixels */
"                                                                                                                                ",
"                                                                                                                                ",
"                                                                                                                                ",
"                                                                                                                                ",
"                                                                                                                                ",
"                                                                                                                                ",
"                                                                                                                                ",
"                                                                                                                                ",
"                                                                                                                                ",
"                                                                                                                                ",
"                                                                                                                                ",
"                                                                                                                                ",
"                                                                                                                                ",
"                                                                                                                                ",
"                                                               ..                                                               ",
"                                                           ..XXXXXX..                                                           ",
"                                                         ..XoOOOOOOoX..                                                         ",
"                                                        .XoO+@####@+OoX.                                                        ",
"                                                       .XO+#$%&**&%$#+OX.                                                       ",
"                                                      .XO@$&=;:>>:;=&$@OX.                                                      ",
"                                                     .XO@$*;><2332<>;*$@OX.                                                     ",
"                                                     XO@$=:<35788753<:=$@OX                                                     ",
"                                                    .o+$*:148qerreq841:*$+o.                                                    ",
"                                                   .XO#&;<59eypaapye95<;&#OX.                                                   ",
"                                                   XO@%-<49ridhjjhdir94<-%@OX                                                   ",
"                                                  .o+$=>38rpglxvvxlgpr83>=$+o.                                                  ",
"                                                 .XO#&:17wigzbMNNMbzgiw71:&#OX.                                                 ",
"                                                 .o@%-,5qudlbNZAAZNblduq5,-%@o.                                                 ",
"                                                .XO#*:28rskbBAFFFFABbksr82:*#OX.                                                ",
"                                                Xo@%;<6wihcNAFFFFFFANchiw6<;%@oX                                                ",
"                                               .o+$=>39ydzmZFFFFFFFFZmzdy93>=$+o.                                               ",
"                                               XO@&;17epjbVDFFFFFFFFDVbjpe71;&@OX                                               ",
"                                              .o+$=,40ugxMAFFFFFFFFFFAMxgu04,=$+o.                                              ",
"                                             .XO#&:27rakbCFFFFFFFFFFFFCbkar82:&#OX.                                             ",
"                                             .o@%-<5qihcNSFFFFFFFFFFFFSNchiq5<-%@o.                                             ",
"                                            .X+#*>39tslmCFFFFFFFFFFFFFFZnlst93>*#+X.                                            ",
"                                            XO@%;<6wpjvBSFFFFFFFFFFFFFFSNvjpw6<;%@OX                                            ",
"                                           .o+$=>40ydzmZFFFFFFFFFFFFFFFFZmzdy04>=$+o.                                           ",
"                                           XO#&;17eakbVSFFFFDZVNBCSFFFFFDBbkae71:&#OX                                           ",
"                                          .o+%-,5qugxMZFFFFSVnczxvMAFFFFFAMxguq5,-%+o.                                          ",
"                                         .XO#*:28rslnCDFFFSBvkfashxMAFFFFDCnlsr82:*#OX.                                         ",
"                                         Xo@%-<6wihcNAFFFDVbjprweufxNSFFFFSNchiw6<-%@oX                                         ",
"                                        .o+$=>39ydzmCFFFFAmlae7560ygvVFFFFFCmzdy93>=$+o.                                        ",
"                                        XO@&;17epjvBSFFFDNxdr61,<30iknAFFFFSBbjpe71;&@OX                                        ",
"                                       .o+$=,40ufxMZFFFFZnhy81;=->4wsxBDFFFFZMxfu04,=$+o.                                       ",
"                                      .XO#&:27rakbVDFFFSNzaq3;%$%=,6yhnZFFFFDVbkar72:&#OX.                                      ",
"                                      .o@%-<5qihcNAFFFFCbgt6>&@++$-2qazNDFFFFANchiq5<-%@o.                                      ",
"                                     .XO#*>39tslnCDFFFAMli91=#Ooo+&>5rgbCFFFFFCnlst93>*#OX.                                     ",
"                                     Xo@%;<6wphvNSFFFDVcfr5:$OX..o#=19ilMSFFFFSNvhpw6<;%@oX                                     ",
"                                    .o+$=>30ydzmZFFFFZmju8<*@o.  .O%;4edcVFFFFFZmzdy03>=$+o.                                    ",
"                                    XO@&;17epjvVSFFFSNcsw3;$O.   .X@*,8ukmAFFFFDVbjae71;&@OX                                    ",
"                                   .o+$=,40ugxMZFFFFCbhy7,&@X     .O$;3qsxBDFFFFAMxgu04,=$+o.                                   ",
"                                  .XO#&:27raknVDFFFAMzpq2-#O.      X@&>6thbZFFFFDCnkar72:&#OX.                                  ",
"                                  .o@%-<5qihcNAFFFFCvgr5>%+X       .o#=10plNSFFFFSNchiq5<-%@o.                                  ",
"                                 .XO#*>39tslnCDFFFAmli91=#o         .O%:5rfvCFFFFFCnlst93>*#OX.                                 ",
"                                 Xo@%;<6wphcNSFFFDVcde4:$O.         .o@*<9ilMAFFFFSNvhpw6<;%@oX                                 ",
"                                .o+$=>30ydzmCDFFFZmju7<*+X           .O$;4edcVDFFFFZmzdy03>=$+o.                                ",
"                                XO@&;17epjbBSFFFSNxsw3;$O.            X@&,7ujnAFFFFDVbjae71;&@OX                                ",
"                               .o+$=,40ugxMZFFFFCbhy7,&@X             .o#-2wsxBDFFFFAMxgu04,=$+o.                               ",
"                              .XO#&:27rakbVDFFFAMzaq2-#O.              X+&>6yhbZFFFFDVbkar82:&#OX.                              ",
"                              .o@%-<5qihcNAFFFFCbgr5>%+X                o#=10pzNDFFFFANchiq5<-%@o.                              ",
"                             .X+#*>39tslnCDFFFAMlp91=#o.                .+%:5rgbCFFFFFCnlst93>*#+X.                             ",
"                             XO@%;<6wpjvNAFFFDVcdr4:$O.                  o@=<9ilmSFFFFSBvjpw6<;%@OX                             ",
"                            .o+$=>40ydzmCFFFFZmki8<*@X                   .O$;4edcVFFFFFZmzdy04>=$+o.                            ",
"                            XO#&;17eajbVSFFFDBxsw3;$O.                    X@*,7ukmAFFFFSBbkae71:&#OX                            ",
"                           .o+%-,5qugxMZFFFFZnhy7,&@X                     .o$;3wsxBDFFFFZMxguq5,-%+o.                           ",
"                          .XO#*:28rsknCDFFFSNzaq2-#o.                      X+&,6yhnZFFFFDCnlsr82:*#OX.                          ",
"                          Xo@%-<6wihcNAFFFFCvgt6>%+X                        o#-2qpzNSFFFFSNchiw6<-%@oX                          ",
"                         .o+$=>39ydzmCFFFFAMlp91=#o                         X+%>5rgvCFFFFFZmzdy93>=$+o.                         ",
"                         XO@&;17epjvBSFFFDVcfe4:%O.                          o#=<9ikmSFFFFSBvjpe71;&@OX                         ",
"                        .o+$=,40ufxMZFFFFAnju8<*@o                           .O$;4edcVFFFFFAMxfu04,=$+o.                        ",
"                       .XO#&:27rakbVDFFFDBxsw3;$O.                            X+&,7yjnAFFFFDVbkar72:&#OX.                       ",
"                       .o@%-<5qihcNAFFFFCbhy7,&+X                             .o#-3qaxBDFFFFANchiq5<-%@o.                       ",
"                      .XO#*>39tslnCDFFFSNzp02-#o.                              X+&>6thnZFFFFFCnlst93>*#OX.                      ",
"                      Xo@%;<6wphvNSFFFFCvgt5>%+X                                o#=20pzNDFFFFSBvhpw6<;%@oX                      ",
"                     .o+$=>30ydzmZFFFFAMli91=@o                                 .+%:5rgvCFFFFFZmzdy03>=$+o.                     ",
"                     XO@&;17epjvVSFFFDVcde4:$O.                                 .o@*<9ilMSFFFFDVbjae71;&@OX                     ",
"                    .o+$=,40ugxMAFFFFZmju8<*@X                                   .O$;4edcVFFFFFAMxgu04,=$+o.                    ",
"                   .XO#&:27rakbVDFFFDBxsw3;$O.                                    X@*,7ujmAFFFFFVbkar82:&#OX.                   ",
"                   .o@%-<5qihcNAFFFFZnhy7,&+X                                     .o$-3wsxBDFFFFANchiq5<-%@o.                   ",
"                  .X+#*>39tslnCDFFFSNzaq2-#o.                                      X+&>7thnZFFFFFZmlst93>*#+X.                  ",
"                  XO@%;<6wpjcNAFFFDCvgt6>%+.                                        o#=10pzNSFFFFSBvjpw6<;%@OX                  ",
"                 .o+$=>40ydzmZFFFFAmki91=#o                                         .O%:5rfvCFFFFFZmzdy04>=$+o.                 ",
"                 XO#&;17eakbVDFFFDVcde4:$O.                                          X@=<9ukmSFFFFDVbkae71:&#OX                 ",
"                .o+%-,5qugxMAFFFFZnju8,*@X                                           .O$;4edcVFFFFFAMxguq5,-%+o.                ",
"               .XO#*:28rslnCDFFFDNxsw3;$O.                                            X@*,7yjnAFFFFFCnlsr82:*#OX.               ",
"               Xo@%-<6wihcNAFFFFZnhy7,&+X                                             .O$-3wsxBDFFFFSNvhiw6<-%@oX               ",
"              .o+$=>39ydzmZFFFFSNzaq2-$O.                                              X+&,7yhnZFFFFFZmzdy93>=$+o.              ",
"              XO@&;17epjbVSFFFFZbhy6,*@o.                                              XO$;3qsxBDFFFFDVbjpe71;&@OX              ",
"             .o+$=,40ufxMAFFFFFBxsw4:&@OXX............................................XoO#-<9ukmSFFFFFAMxfu04,=$+o.             ",
"            .XO#&:27rakbCFFFFFDNlpq3:*$@++OOOOOOOOOOOOOOOOOOOOOOOOOOOOOOOOOOOOOOOOOOOO+@#%-<6tgbZFFFFFFCnkar72:&#OX.            ",
"            .o@%-<5qigcNSFFFFFSMlpw5<;=&&%%%%%%%%%%%%%%%%%%%%%%%%%%%%%%%%%%%%%%%%%%%%%&&*->27tgvCFFFFFFSNcgiq5<-%@o.            ",
"           .XO#*:28tslnCFFFFFFDNzst9521,,,,,,,,,,,,,,,,,,,,,,,,,,,,,,,,,,,,,,,,,,,,,,,,,<147wihbZFFFFFFFZnlst82:*#OX.           ",
"           .o@%-<5wihvBSFFFFFFFCvjatw09888888888888888888888888888888888888888888888888890qrifzMSFFFFFFFDBvhiw5<-%@o.           ",
"          .XO#*>39tdzmZFFFFFFFFSNvlgsappiiiiiiiiiiiiiiiiiiiiiiiiiiiiiiiiiiiiiiiiiiiiiiiippsfjzmZFFFFFFFFFZmzdt93>*#OX.          ",
"          .o@%-<5wihcBSFFFFFFFFFSVmbcxxxzzzzzzzzzzzzzzzzzzzzzzzzzzzzzzzzzzzzzzzzzzzzzzzzxxcvnNZFFFFFFFFFFSBchiw5<-%@o.          ",
"          XO#&:28rslnCFFFFFFFFFFFFSACCVVVVVVVVVVVVVVVVVVVVVVVVVVVVVVVVVVVVVVVVVVVVVVVVVVVCCZADFFFFFFFFFFFFCnlsr82:&#OX          ",
"         .o+$=,40ufxMAFFFFFFFFFFFFFFFFFFFFFFFFFFFFFFFFFFFFFFFFFFFFFFFFFFFFFFFFFFFFFFFFFFFFFFFFFFFFFFFFFFFFAMxgu04,=$+o.         ",
"         .o@%-<6wihcNAFFFFFFFFFFFFFFFFFFFFFFFFFFFFFFFFFFFFFFFFFFFFFFFFFFFFFFFFFFFFFFFFFFFFFFFFFFFFFFFFFFFFANchiw6<-%@o.         ",
"         XO@&;17epjcNAFFFFFFFFFFFFFFFFFFFFFFFFFFFFFFFFFFFFFFFFFFFFFFFFFFFFFFFFFFFFFFFFFFFFFFFFFFFFFFFFFFFFANcjpe71;&@OX         ",
"         XO#&:27rphcmCSFFFFFFFFFFFFFFFFFFFFFFFFFFFFFFFFFFFFFFFFFFFFFFFFFFFFFFFFFFFFFFFFFFFFFFFFFFFFFFFFFFSCmchpe72:&#OX         ",
"         XO#&:27eigzbNCADFFFFFFFFFFFFFFFFFFFFFFFFFFFFFFFFFFFFFFFFFFFFFFFFFFFFFFFFFFFFFFFFFFFFFFFFFFFFFFDACNbzgie72:&#OX         ",
"         XO#&;16qyshzvmNVCZZZZAZZZZZZZZZZZZZZZZZZZZZZZZZZZZZZZZZZZZZZZZZZZZZZZZZZZZZZZZZZZZZZZZZZAZZZZCVNmvzhsyq61;&#OX         ",
"         XO@%-,48eushkzcvbnnnnnnnnnnnnnnnnnnnnnnnnnnnnnnnnnnnnnnnnnnnnnnnnnnnnnnnnnnnnnnnnnnnnnnnnnnnnbvczkhsue94,-%@OX         ",
"         .o+$=:159eypsfghjjkkkkkkkkkkkkkkkkkkkkkkkkkkkkkkkkkkkkkkkkkkkkkkkkkkkkkkkkkkkkkkkkkkkkkkkkkkjjhgfspye951:=$+o.         ",
"         .XO#%->158qetyuiippppppppppppppppppppppppppppppppppppppppppppppppppppppppppppppppppppppppppppiiuyteq851>-%#OX.         ",
"          Xo+$&-><3578900qqwwwwwqqwwwwwwwwwwwwwwwwwwwwwwqqwwwwwwqqwwwwwwwwwwwwwwwwwwwwwwqqwwwwwwwwwwwqqq098753<>-&$+oX          ",
"          .XO@$&=;><1234444555555555555555555555555555555555555555555555555555555555555555555555555554444321<>;=&$@OX.          ",
"           .XO+#$&=-;::>>>>>>>>>>>>>>>>>>>>>>>>>>>>>>>>>>>>>>>>>>>>>>>>>>>>>>>>>>>>>>>>>>>>>>>>>>>>>>>>>>::;-=&$#+OX.           ",
"            .XoO@#$%%&&**********************************************************************************&&%%$#@OoX.            ",
"             .XXoO++@@@##################################################################################@@@++OoXX.             ",
"               ..XXoooOOOOOOOOOOOOOOOOOOOOOOOOOOOOOOOOOOOOOOOOOOOOOOOOOOOOOOOOOOOOOOOOOOOOOOOOOOOOOOOOOOOOoooXX..               ",
"                  .....XXXXXXXXXXXXXXXXXXXXXXXXXXX.XXXXXXXXXXXXXXXXXXXXXXXXXXXXXXX.XXXXXXXXXXXXXXXXXXXXXX.....                  ",
"                                                                                                                                ",
"                                                                                                                                ",
"                                                                                                                                ",
"                                                                                                                                ",
"                                                                                                                                ",
"                                                                                                                                ",
"                                                                                                                                ",
"                                                                                                                                ",
"                                                                                                                                ",
"                                                                                                                                ",
"                                                                                                                                ",
"                                                                                                                                ",
"                                                                                                                                ",
"                                                                                                                                ",
"                                                                                                                                "
};
